<svg width="420" height="185" viewBox="0 0 420 185" fill="none" xmlns="http://www.w3.org/2000/svg">
<path d="M113.361 89.8297L121.679 65.8736H127.572L135.906 89.8297H130.627L128.851 84.0191H120.4L118.624 89.8297H113.361ZM124.484 70.6548L121.546 80.2672H127.705L124.783 70.6548H124.484ZM151.628 89.8297V82.2759H144.672V89.8297H139.824V71.5513H144.672V78.607H151.628V71.5513H156.476V89.8297H151.628ZM166.619 90.1119C163.133 90.1119 160.659 87.9537 160.659 84.6334V84.6002C160.659 81.313 163.199 79.3873 167.748 79.1216L172.164 78.856V77.3453C172.164 75.7681 171.085 74.8716 169.093 74.8716C167.35 74.8716 166.237 75.4859 165.855 76.565L165.822 76.6314H161.34L161.356 76.482C161.738 73.2779 164.76 71.1529 169.358 71.1529C174.206 71.1529 176.945 73.4439 176.945 77.3453V89.8297H172.164V87.4058H171.865C170.936 89.0992 169.01 90.1119 166.619 90.1119ZM165.391 84.3345C165.391 85.7291 166.569 86.5757 168.246 86.5757C170.487 86.5757 172.164 85.0982 172.164 83.1724V81.8277L168.479 82.0601C166.403 82.1929 165.391 82.9732 165.391 84.3013V84.3345ZM187.902 81.4791C187.57 86.8912 185.943 89.9957 181.826 89.9957C181.029 89.9957 180.415 89.8629 180.149 89.7798V85.6793C180.349 85.7291 180.78 85.7955 181.262 85.7955C182.955 85.7955 183.486 83.6705 183.619 81.0972L184.184 71.5513H197.963V89.8297H193.115V75.2203H188.334L187.902 81.4791ZM203.143 89.8297V71.5513H207.907V82.9898H208.256L215.229 71.5513H219.993V89.8297H215.229V78.2584H214.863L207.907 89.8297H203.143ZM239.55 71.5513V75.2203H234.088V89.8297H229.24V75.2203H223.762V71.5513H239.55ZM243.318 89.8297V71.5513H248.083V82.9898H248.432L255.404 71.5513H260.169V89.8297H255.404V78.2584H255.039L248.083 89.8297H243.318ZM281.22 89.8297H276.372V82.6744H276.073C275.11 83.4547 273.649 83.9195 271.84 83.9195C267.54 83.9195 264.983 81.2964 264.983 77.1461V71.5513H269.831V76.5982C269.831 78.773 270.91 79.9019 273.068 79.9019C274.646 79.9019 275.758 79.4703 276.372 78.8726V71.5513H281.22V89.8297ZM294.418 90.2115C288.856 90.2115 285.486 86.5757 285.486 80.7154V80.6988C285.486 74.8882 288.89 71.1529 294.219 71.1529C299.548 71.1529 302.868 74.8052 302.868 80.3336V81.8443H290.284C290.334 84.8492 291.944 86.5923 294.518 86.5923C296.643 86.5923 297.821 85.4634 298.153 84.7662L298.203 84.6666H302.719L302.686 84.8326C302.121 87.1236 299.764 90.2115 294.418 90.2115ZM294.302 74.7886C292.193 74.7886 290.633 76.2164 290.334 78.8062H298.22C297.921 76.15 296.41 74.7886 294.302 74.7886ZM315.22 90.2115C309.509 90.2115 306.271 86.7418 306.271 80.6656V80.6324C306.271 74.6226 309.492 71.1529 315.22 71.1529C320.067 71.1529 322.939 73.7925 323.371 77.8765V77.9263H318.855L318.839 77.8931C318.523 76.1168 317.312 74.9547 315.236 74.9547C312.63 74.9547 311.202 76.98 311.202 80.6324V80.6656C311.202 84.3677 312.646 86.4097 315.236 86.4097C317.229 86.4097 318.407 85.4634 318.839 83.6373L318.872 83.5709H323.354L323.338 83.6705C322.84 87.6548 319.984 90.2115 315.22 90.2115ZM333.266 82.1763H332.336V89.8297H327.488V71.5513H332.336V78.7232H333.199L338.645 71.5513H344.14L337.2 79.9185L344.505 89.8297H338.744L333.266 82.1763ZM352.357 90.1119C348.871 90.1119 346.397 87.9537 346.397 84.6334V84.6002C346.397 81.313 348.938 79.3873 353.486 79.1216L357.902 78.856V77.3453C357.902 75.7681 356.823 74.8716 354.831 74.8716C353.088 74.8716 351.976 75.4859 351.594 76.565L351.561 76.6314H347.078L347.095 76.482C347.477 73.2779 350.498 71.1529 355.097 71.1529C359.944 71.1529 362.684 73.4439 362.684 77.3453V89.8297H357.902V87.4058H357.604C356.674 89.0992 354.748 90.1119 352.357 90.1119ZM351.129 84.3345C351.129 85.7291 352.308 86.5757 353.984 86.5757C356.226 86.5757 357.902 85.0982 357.902 83.1724V81.8277L354.217 82.0601C352.142 82.1929 351.129 82.9732 351.129 84.3013V84.3345ZM377.924 89.8297V83.8863H375.965L371.897 89.8297H366.419L371.217 83.106C368.776 82.3922 367.266 80.3834 367.266 77.8765V77.8433C367.266 73.9918 370.171 71.5513 374.471 71.5513H382.672V89.8297H377.924ZM374.969 80.4664H377.924V75.1705H374.969C373.176 75.1705 372.063 76.233 372.063 77.8599V77.8931C372.063 79.3707 373.176 80.4664 374.969 80.4664ZM114.59 120.83V102.551H131.075V120.83H126.228V106.204H119.438V120.83H114.59ZM142.115 112.479C141.783 117.891 140.156 120.996 136.039 120.996C135.242 120.996 134.628 120.863 134.362 120.78V116.679C134.562 116.729 134.993 116.795 135.475 116.795C137.168 116.795 137.699 114.67 137.832 112.097L138.396 102.551H152.176V120.83H147.328V106.22H142.547L142.115 112.479ZM162.336 121.112C158.85 121.112 156.376 118.954 156.376 115.633V115.6C156.376 112.313 158.916 110.387 163.465 110.122L167.881 109.856V108.345C167.881 106.768 166.802 105.872 164.81 105.872C163.066 105.872 161.954 106.486 161.572 107.565L161.539 107.631H157.057L157.073 107.482C157.455 104.278 160.477 102.153 165.075 102.153C169.923 102.153 172.662 104.444 172.662 108.345V120.83H167.881V118.406H167.582C166.652 120.099 164.727 121.112 162.336 121.112ZM161.107 115.335C161.107 116.729 162.286 117.576 163.963 117.576C166.204 117.576 167.881 116.098 167.881 114.172V112.828L164.195 113.06C162.12 113.193 161.107 113.973 161.107 115.301V115.335ZM192.103 102.551V106.22H186.641V120.83H181.793V106.22H176.314V102.551H192.103ZM204.321 126.889V121.079C198.312 120.946 194.477 117.443 194.477 111.699V111.666C194.477 105.988 198.361 102.419 204.321 102.286V96.6578H209.053V102.286C215.062 102.419 218.897 105.921 218.897 111.682V111.715C218.897 117.393 215.013 120.962 209.053 121.079V126.889H204.321ZM204.371 117.426V105.955C201.35 106.038 199.374 108.163 199.374 111.666V111.699C199.374 115.235 201.316 117.327 204.371 117.426ZM209.003 117.426C212.024 117.343 214 115.202 214 111.699V111.666C214 108.129 212.041 106.038 209.003 105.955V117.426ZM231.315 121.211C225.688 121.211 222.301 117.642 222.301 111.699V111.666C222.301 105.772 225.737 102.153 231.315 102.153C236.894 102.153 240.33 105.755 240.33 111.666V111.699C240.33 117.659 236.943 121.211 231.315 121.211ZM231.315 117.41C233.889 117.41 235.366 115.301 235.366 111.699V111.666C235.366 108.096 233.872 105.955 231.315 105.955C228.742 105.955 227.265 108.096 227.265 111.666V111.699C227.265 115.301 228.726 117.41 231.315 117.41ZM244.613 126.889V102.551H249.461V105.374H249.76C250.706 103.415 252.648 102.253 255.238 102.253C259.804 102.253 262.659 105.838 262.659 111.666V111.699C262.659 117.576 259.87 121.112 255.238 121.112C252.731 121.112 250.689 119.9 249.76 117.908H249.461V126.889H244.613ZM253.578 117.094C256.135 117.094 257.729 115.052 257.729 111.699V111.666C257.729 108.312 256.151 106.27 253.578 106.27C251.021 106.27 249.411 108.312 249.411 111.666V111.699C249.411 115.052 251.038 117.094 253.578 117.094ZM271.524 120.83H266.959V102.551H273.234L278.016 114.471H278.314L283.112 102.551H289.305V120.83H284.739V108.644H284.44L279.809 119.834H276.438L271.823 108.644H271.524V120.83ZM299.465 121.112C295.979 121.112 293.505 118.954 293.505 115.633V115.6C293.505 112.313 296.045 110.387 300.594 110.122L305.01 109.856V108.345C305.01 106.768 303.931 105.872 301.938 105.872C300.195 105.872 299.083 106.486 298.701 107.565L298.668 107.631H294.186L294.202 107.482C294.584 104.278 297.605 102.153 302.204 102.153C307.052 102.153 309.791 104.444 309.791 108.345V120.83H305.01V118.406H304.711C303.781 120.099 301.855 121.112 299.465 121.112ZM298.236 115.335C298.236 116.729 299.415 117.576 301.092 117.576C303.333 117.576 305.01 116.098 305.01 114.172V112.828L301.324 113.06C299.249 113.193 298.236 113.973 298.236 115.301V115.335Z" fill="black"/>
<path d="M24.7925 43.8297C17.3833 43.8297 11.3572 49.8595 11.3572 57.2696C11.3572 57.9785 11.4118 58.6771 11.5194 59.3655C4.82053 61.5315 0 67.8568 0 75.1712C0 78.5432 1.00577 81.7751 2.87388 84.5116C1.00577 87.2463 0 90.4782 0 93.8501C0 101.165 4.82053 107.49 11.5177 109.656C11.4101 110.343 11.3555 111.043 11.3555 111.752C11.3555 119.164 17.3833 125.192 24.7908 125.192C26.5616 125.192 27.9977 123.755 27.9977 121.984C27.9977 120.212 26.5616 118.776 24.7908 118.776C20.918 118.776 17.7675 115.624 17.7675 111.75C17.7675 110.657 18.0117 109.61 18.4949 108.636C18.9696 107.678 18.9372 106.547 18.4061 105.619C17.8751 104.692 16.9188 104.089 15.8533 104.012C10.558 103.629 6.4103 99.166 6.4103 93.8501C6.4103 91.1837 7.43485 88.6607 9.29613 86.7476C10.5068 85.5023 10.5068 83.5191 9.29613 82.2738C7.43485 80.359 6.4103 77.836 6.4103 75.1712C6.4103 69.8554 10.558 65.3919 15.8533 65.0093C16.9188 64.9324 17.8768 64.3295 18.4061 63.4019C18.9355 62.4744 18.9696 61.3419 18.4949 60.3853C18.0117 59.4116 17.7675 58.3628 17.7675 57.2713C17.7675 53.3971 20.918 50.2456 24.7908 50.2456C28.6636 50.2456 31.8141 53.3971 31.8141 57.2713V75.9553L26.1279 71.3996C25.1699 70.6326 23.7748 70.7864 23.0081 71.7446C22.2414 72.7012 22.3951 74.1002 23.353 74.8655L31.8141 81.6469V82.3268V100.07L22.4463 92.5622C21.49 91.7952 20.0915 91.9489 19.3265 92.9072C18.5598 93.8638 18.7135 95.2628 19.6715 96.0281L31.8159 105.76V111.752V130.204L13.8161 137.656C12.1803 138.334 11.4016 140.21 12.0795 141.846C12.5901 143.081 13.7854 143.828 15.0439 143.828C15.452 143.828 15.8687 143.749 16.2682 143.584L36.2488 135.311C37.4475 134.814 38.2296 133.646 38.2296 132.347V111.752V82.3251V57.2696C38.2296 49.8595 32.2018 43.8297 24.7925 43.8297Z" fill="#6979F8"/>
<path d="M80.8989 75.1712C80.8989 67.8568 76.0783 61.5315 69.3795 59.3655C69.487 58.6788 69.5417 57.9785 69.5417 57.2696C69.5417 49.8595 63.5139 43.8297 56.1064 43.8297C54.3356 43.8297 52.8995 45.2662 52.8995 47.0376C52.8995 48.809 54.3356 50.2456 56.1064 50.2456C59.9792 50.2456 63.1297 53.3971 63.1297 57.2713C63.1297 58.3645 62.8855 59.4116 62.4022 60.3853C61.9275 61.3436 61.96 62.4744 62.491 63.4019C63.0221 64.3295 63.9784 64.9324 65.0439 65.0093C70.3391 65.3919 74.4869 69.8554 74.4869 75.1712C74.4869 77.8377 73.4623 80.3607 71.601 82.2738C70.3904 83.5191 70.3904 85.5023 71.601 86.7476C73.4623 88.6624 74.4869 91.1854 74.4869 93.8501C74.4869 99.166 70.3391 103.629 65.0439 104.012C63.9784 104.089 63.0204 104.692 62.491 105.619C61.9617 106.547 61.9275 107.68 62.4022 108.636C62.8855 109.61 63.1297 110.659 63.1297 111.75C63.1297 115.624 59.9792 118.776 56.1064 118.776C52.2335 118.776 49.083 115.624 49.083 111.75V105.842L61.3316 96.0264C62.2878 95.2594 62.4432 93.8621 61.6765 92.9055C60.9098 91.9489 59.513 91.7935 58.5568 92.5605L49.0847 100.152V82.3251V81.7289L57.6517 74.8638C58.608 74.0968 58.7634 72.6995 57.9967 71.7429C57.23 70.7864 55.8331 70.6326 54.8769 71.3979L49.0864 76.0373V57.2696C49.0864 55.4982 47.6504 54.0616 45.8796 54.0616C44.1088 54.0616 42.6727 55.4982 42.6727 57.2696V82.3251V111.752V132.347C42.6727 133.646 43.4548 134.816 44.6535 135.311L64.6341 143.584C65.0354 143.749 65.4503 143.828 65.8584 143.828C67.1169 143.828 68.3105 143.081 68.8228 141.846C69.5007 140.21 68.722 138.333 67.0862 137.656L49.0864 130.204V123.205C51.1321 124.464 53.5364 125.193 56.1098 125.193C63.519 125.193 69.5451 119.164 69.5451 111.754C69.5451 111.045 69.4905 110.346 69.3829 109.658C76.0801 107.492 80.9023 101.166 80.9023 93.8519C80.9023 90.4799 79.8965 87.2481 78.0284 84.5116C79.8931 81.7751 80.8989 78.5432 80.8989 75.1712Z" fill="#6979F8"/>
</svg>
