<svg width="48" height="49" viewBox="0 0 48 49" fill="none" xmlns="http://www.w3.org/2000/svg">
<g clip-path="url(#clip0_1_32)">
<path d="M40.785 2.92896C38.4581 2.92896 36.5662 4.82177 36.5662 7.14771C36.5662 7.79739 36.7256 8.40489 36.9891 8.9552L34.9734 10.9708C32.1187 4.58458 25.7184 0.116455 18.2831 0.116455C8.20219 0.116455 0 8.31864 0 18.3996C0 28.4805 8.20219 36.6827 18.2831 36.6827C21.7856 36.6827 25.05 35.6749 27.8334 33.9602L29.9381 36.4718C31.8525 34.6802 34.5609 31.9718 36.3544 30.0565L33.8419 27.9527C35.5575 25.1683 36.5653 21.904 36.5653 18.4005C36.5653 16.8565 36.3516 15.3658 35.9897 13.9324L38.9766 10.9455C39.5269 11.209 40.1344 11.3683 40.7841 11.3683C43.1109 11.3683 45.0028 9.47552 45.0028 7.14958C45.0037 4.82177 43.1109 2.92896 40.785 2.92896ZM18.2831 33.8693C9.75375 33.8693 2.8125 26.9299 2.8125 18.3996C2.8125 9.86927 9.75375 2.92896 18.2831 2.92896C24.9619 2.92896 30.6497 7.19177 32.8106 13.1336L28.5291 17.4152C27.9788 17.1518 27.3713 16.9924 26.7216 16.9924C26.0719 16.9924 25.4644 17.1518 24.9141 17.4152L22.08 14.5811C22.3434 14.0308 22.5028 13.4233 22.5028 12.7736C22.5028 10.4468 20.61 8.55489 18.2841 8.55489C15.9581 8.55489 14.0653 10.4477 14.0653 12.7736C14.0653 13.4233 14.2247 14.0308 14.4881 14.5811L11.6541 17.4152C11.1038 17.1518 10.4963 16.9924 9.84656 16.9924C7.51969 16.9924 5.62781 18.8852 5.62781 21.2111C5.62781 23.5371 7.52063 25.4299 9.84656 25.4299C12.1725 25.4299 14.0653 23.5371 14.0653 21.2111C14.0653 20.5615 13.9059 19.954 13.6425 19.4036L16.4766 16.5696C17.0269 16.833 17.6344 16.9924 18.2841 16.9924C18.9338 16.9924 19.5413 16.833 20.0916 16.5696L22.9256 19.4036C22.6622 19.954 22.5028 20.5615 22.5028 21.2111C22.5028 23.538 24.3956 25.4299 26.7216 25.4299C29.0475 25.4299 30.9403 23.5371 30.9403 21.2111C30.9403 20.5615 30.7809 19.954 30.5175 19.4036L33.5972 16.324C33.6891 17.0046 33.7528 17.6936 33.7528 18.3986C33.7528 26.9299 26.8116 33.8693 18.2831 33.8693Z" fill="#999999"/>
<path d="M47.9775 41.9815C47.8453 40.4805 47.1338 39.1202 45.9806 38.1527L38.5106 31.8621C36.615 33.8965 33.7772 36.7343 31.7447 38.628L38.0372 46.1074C38.2378 46.3465 38.4844 46.5949 38.7319 46.8021C39.7866 47.6852 41.0719 48.1165 42.3525 48.1165C43.965 48.1165 45.5691 47.4311 46.6819 46.0999C47.6513 44.9449 48.1097 43.4824 47.9775 41.9815Z" fill="#999999"/>
</g>
<defs>
<clipPath id="clip0_1_32">
<rect width="48" height="48" fill="white" transform="translate(0 0.116455)"/>
</clipPath>
</defs>
</svg>
