<svg width="48" height="49" viewBox="0 0 48 49" fill="none" xmlns="http://www.w3.org/2000/svg">
<path d="M28.9941 10.2963L31.8104 7.54736C32.4038 6.96904 32.4169 6.01799 31.8385 5.42277C31.6079 5.18618 31.306 5.03127 30.9788 4.98433L27.0863 4.41821L25.3463 0.885363C24.9076 0.140864 23.9494 -0.10605 23.206 0.334265C22.9791 0.468519 22.7897 0.658164 22.6557 0.885363L20.9157 4.41821L17.0232 4.98433C16.2029 5.10356 15.6347 5.86496 15.7538 6.68645C15.8016 7.0141 15.9554 7.31641 16.1916 7.54736L19.0079 10.2963L18.3432 14.1793C18.2026 14.997 18.751 15.7735 19.5676 15.9143C19.8929 15.9706 20.2276 15.9171 20.5201 15.7631L24.0001 13.9286L27.4819 15.7622C28.2151 16.1481 29.1226 15.8664 29.5079 15.1322C29.6616 14.8393 29.7151 14.5042 29.6588 14.1784L28.9941 10.2963Z" fill="#999999"/>
<path d="M47.9269 10.4474C47.7507 9.90385 47.281 9.50672 46.7157 9.42504L42.8232 8.85892L41.0813 5.32701C40.6435 4.58345 39.6863 4.3356 38.9429 4.77403C38.715 4.90829 38.5247 5.09887 38.3907 5.32701L36.6507 8.85892L32.7582 9.42504C31.9379 9.54427 31.3697 10.3057 31.4888 11.1272C31.5357 11.4539 31.6894 11.7562 31.9257 11.9871L34.7429 14.7361L34.0782 18.6191C33.9375 19.4368 34.486 20.2132 35.3025 20.3541C35.6279 20.4104 35.9625 20.3569 36.2541 20.2038L39.735 18.3712L43.2188 20.2029C43.9519 20.5888 44.8594 20.3071 45.2447 19.5729C45.3985 19.28 45.4519 18.9449 45.3957 18.6191L44.731 14.7361L47.5472 11.9871C47.956 11.5891 48.1032 10.991 47.9269 10.4474Z" fill="#999999"/>
<path d="M15.241 9.42504L11.3485 8.85892L9.60941 5.32607C9.24285 4.58251 8.34378 4.27645 7.60035 4.64354C7.3041 4.78999 7.06503 5.0294 6.91878 5.32607L5.17691 8.85892L1.28441 9.42504C0.464097 9.54427 -0.104028 10.3066 0.0150343 11.1272C0.0628468 11.4548 0.216597 11.7571 0.452847 11.9881L3.2691 14.737L2.60441 18.62C2.46378 19.4378 3.01222 20.2142 3.82878 20.355C4.1541 20.4113 4.48878 20.3578 4.78128 20.2038L8.26316 18.3712L11.7441 20.2038C12.4772 20.5897 13.3847 20.3081 13.77 19.5739C13.9238 19.281 13.9772 18.9458 13.921 18.62L13.2563 14.737L16.0735 11.9881C16.6669 11.4088 16.6782 10.4578 16.0997 9.86348C15.87 9.62689 15.5682 9.47292 15.241 9.42504Z" fill="#999999"/>
<path d="M39 22.58H9C6.51562 22.5829 4.50281 24.5985 4.5 27.0865V39.1036C4.50281 41.5915 6.51562 43.6072 9 43.61H18.8784L22.9387 47.6761C23.5237 48.2629 24.4734 48.2629 25.0594 47.6771L25.0603 47.6761L29.1206 43.61H39C41.4844 43.6072 43.4972 41.5915 43.5 39.1036V27.0865C43.4972 24.5985 41.4844 22.5829 39 22.58ZM36 37.6015H12C11.1712 37.6015 10.5 36.9293 10.5 36.0993C10.5 35.2694 11.1712 34.5972 12 34.5972H36C36.8288 34.5972 37.5 35.2694 37.5 36.0993C37.5 36.9293 36.8288 37.6015 36 37.6015ZM36 31.5929H12C11.1712 31.5929 10.5 30.9207 10.5 30.0908C10.5 29.2608 11.1712 28.5886 12 28.5886H36C36.8288 28.5886 37.5 29.2608 37.5 30.0908C37.5 30.9207 36.8288 31.5929 36 31.5929Z" fill="#999999"/>
</svg>
