<svg width="47" height="49" viewBox="0 0 47 49" fill="none" xmlns="http://www.w3.org/2000/svg">
<g clip-path="url(#clip0_1_30)">
<path fill-rule="evenodd" clip-rule="evenodd" d="M31.5047 24.7596C31.4991 20.3046 27.8888 16.6943 23.4338 16.6896C22.8122 16.6896 22.3088 16.1861 22.3088 15.5646C22.3088 14.943 22.8122 14.4396 23.4338 14.4396C29.1309 14.4452 33.7491 19.0624 33.7556 24.7596C33.7556 25.3811 33.2522 25.8855 32.6297 25.8855C32.0072 25.8855 31.5047 25.3811 31.5047 24.7596ZM25.5347 45.8665H21.3291C20.8819 45.8665 20.52 45.5036 20.52 45.0565V43.9915H26.3484V45.0565C26.3475 45.5046 25.9847 45.8665 25.5366 45.8665C25.5356 45.8665 25.5356 45.8665 25.5347 45.8665ZM27.8738 36.3658C28.245 35.4508 28.8825 34.6699 29.7047 34.1233C34.8778 30.6602 36.2644 23.659 32.8013 18.4849C29.3381 13.3108 22.3369 11.9252 17.1628 15.3883C11.9888 18.8515 10.6031 25.8527 14.0663 31.0268C14.8856 32.2511 15.9384 33.303 17.1628 34.1233C17.985 34.6699 18.6225 35.4508 18.9938 36.3658H22.3106V27.949C20.5481 27.3283 19.6219 25.3971 20.2425 23.6346C20.8631 21.8721 22.7944 20.9458 24.5569 21.5665C26.3194 22.1871 27.2456 24.1183 26.625 25.8808C26.2847 26.8483 25.5244 27.6086 24.5569 27.949V36.3658H27.8738ZM19.7241 41.7415C19.5178 41.7386 19.3509 41.5718 19.3481 41.3655V38.6158H27.5203V41.3655C27.5175 41.5718 27.3506 41.7386 27.1444 41.7415H19.7241ZM0.924377 28.2761L5.56781 29.1021C5.90625 30.1933 6.34406 31.2499 6.87656 32.2605L4.17938 36.1277C3.86531 36.574 3.91781 37.1805 4.30313 37.5668L9.42 42.6808C9.80531 43.0652 10.4109 43.1196 10.8572 42.8083L14.7272 40.1093C15.4922 40.5124 16.2844 40.8611 17.0972 41.1546V41.3665C17.0981 42.2458 17.5397 43.0671 18.2738 43.5527V45.0574C18.2747 46.7458 19.6416 48.1146 21.33 48.1174H25.5356C27.225 48.1165 28.5947 46.7468 28.5956 45.0574V43.5527C29.3297 43.0671 29.7713 42.2468 29.7722 41.3665V41.1565C30.5859 40.863 31.3772 40.5133 32.1422 40.1102L36.0113 42.8093C36.4575 43.1205 37.0631 43.0671 37.4484 42.6818L42.5606 37.5677C42.9488 37.1833 43.0031 36.5749 42.6891 36.1286L39.9919 32.2605C40.5225 31.249 40.9603 30.1924 41.3006 29.103L45.9441 28.2771C46.4803 28.1805 46.8694 27.7136 46.8684 27.169V19.938C46.8694 19.3933 46.4794 18.9265 45.9441 18.8299L41.3006 18.003C40.9622 16.9127 40.5244 15.8552 39.9919 14.8455L42.6891 10.9774C43.0031 10.5311 42.9497 9.9227 42.5606 9.53833L37.4484 4.42427C37.0641 4.03896 36.4575 3.98552 36.0113 4.2977L32.1422 6.99677C31.1316 6.46521 30.075 6.02645 28.9847 5.68708L28.1569 1.04458C28.0613 0.50833 27.5963 0.117393 27.0516 0.116455H19.8169C19.2722 0.117393 18.8063 0.50833 18.7116 1.04458L17.8847 5.68614C16.7944 6.02552 15.7378 6.46333 14.7272 6.99583L10.8581 4.29677C10.4119 3.98458 9.80531 4.03802 9.42094 4.42333L4.30313 9.53739C3.91781 9.92364 3.86531 10.5302 4.17938 10.9765L6.87656 14.8446C6.34406 15.8552 5.90625 16.9118 5.56781 18.0021L0.924377 18.829C0.388127 18.9255 -0.000935809 19.3924 1.69063e-06 19.9371V27.168C-0.000935809 27.7127 0.388127 28.1796 0.924377 28.2761Z" fill="#999999"/>
</g>
<defs>
<clipPath id="clip0_1_30">
<rect width="46.8675" height="48" fill="white" transform="translate(0 0.116455)"/>
</clipPath>
</defs>
</svg>
